<svg width="120" height="120" viewBox="0 0 20 20" fill="none" xmlns="http://www.w3.org/2000/svg">
<path d="M6.988 8.608C6.95667 8.73411 6.87747 8.84306 6.76719 8.91178C6.65692 8.98051 6.52421 9.0036 6.3972 8.97617C6.27019 8.94874 6.15885 8.87294 6.08676 8.76483C6.01467 8.65672 5.9875 8.5248 6.011 8.397V8.392C6.02941 8.31457 6.05279 8.23842 6.081 8.164C6.131 8.041 6.209 7.874 6.333 7.704C6.49471 7.48014 6.70852 7.29905 6.95594 7.17639C7.20335 7.05373 7.47693 6.99319 7.753 7C8.306 7 8.755 7.215 9.062 7.561C9.36 7.898 9.5 8.333 9.5 8.75C9.5 9.099 9.431 9.398 9.295 9.656C9.17069 9.88565 8.99765 10.0853 8.788 10.241C8.6345 10.355 8.4742 10.4595 8.308 10.554L8.252 10.588C8.084 10.688 7.946 10.775 7.827 10.878C7.433 11.219 7.175 11.58 7.063 12H9C9.13261 12 9.25979 12.0527 9.35355 12.1464C9.44732 12.2402 9.5 12.3674 9.5 12.5C9.5 12.6326 9.44732 12.7598 9.35355 12.8536C9.25979 12.9473 9.13261 13 9 13H6.5C6.36739 13 6.24021 12.9473 6.14645 12.8536C6.05268 12.7598 6 12.6326 6 12.5C6 11.49 6.475 10.726 7.173 10.122C7.363 9.956 7.569 9.832 7.74 9.729L7.798 9.694C7.92923 9.62053 8.0558 9.53904 8.177 9.45C8.27277 9.38145 8.35231 9.29269 8.41 9.19C8.47601 9.05306 8.50693 8.90186 8.5 8.75C8.50303 8.55787 8.43663 8.3711 8.313 8.224C8.203 8.1 8.03 8 7.753 8C7.423 8 7.248 8.146 7.139 8.295C7.07351 8.38604 7.02381 8.48746 6.992 8.595L6.988 8.608ZM11 7C11.1326 7 11.2598 7.05268 11.3536 7.14645C11.4473 7.24021 11.5 7.36739 11.5 7.5V10H13V7.5C13 7.36739 13.0527 7.24021 13.1464 7.14645C13.2402 7.05268 13.3674 7 13.5 7C13.6326 7 13.7598 7.05268 13.8536 7.14645C13.9473 7.24021 14 7.36739 14 7.5V12.5C14 12.6326 13.9473 12.7598 13.8536 12.8536C13.7598 12.9473 13.6326 13 13.5 13C13.3674 13 13.2402 12.9473 13.1464 12.8536C13.0527 12.7598 13 12.6326 13 12.5V11H11C10.8674 11 10.7402 10.9473 10.6464 10.8536C10.5527 10.7598 10.5 10.6326 10.5 10.5V7.5C10.5 7.36739 10.5527 7.24021 10.6464 7.14645C10.7402 7.05268 10.8674 7 11 7ZM10 2C7.87827 2 5.84344 2.84285 4.34315 4.34315C2.84285 5.84344 2 7.87827 2 10C2 12.1217 2.84285 14.1566 4.34315 15.6569C5.84344 17.1571 7.87827 18 10 18C12.1217 18 14.1566 17.1571 15.6569 15.6569C17.1571 14.1566 18 12.1217 18 10C18 7.87827 17.1571 5.84344 15.6569 4.34315C14.1566 2.84285 12.1217 2 10 2ZM3 10C3 9.08075 3.18106 8.1705 3.53284 7.32122C3.88463 6.47194 4.40024 5.70026 5.05025 5.05025C5.70026 4.40024 6.47194 3.88463 7.32122 3.53284C8.1705 3.18106 9.08075 3 10 3C10.9193 3 11.8295 3.18106 12.6788 3.53284C13.5281 3.88463 14.2997 4.40024 14.9497 5.05025C15.5998 5.70026 16.1154 6.47194 16.4672 7.32122C16.8189 8.1705 17 9.08075 17 10C17 11.8565 16.2625 13.637 14.9497 14.9497C13.637 16.2625 11.8565 17 10 17C8.14348 17 6.36301 16.2625 5.05025 14.9497C3.7375 13.637 3 11.8565 3 10Z" fill="#8d79af"/>
</svg>
